<svg width="1014" height="204" viewBox="0 0 1014 204" fill="none" xmlns="http://www.w3.org/2000/svg">
<rect x="-35.0542" width="1060" height="47" transform="rotate(8.49818 -35.0542 0)" fill="#FAD00C"/>
<path d="M-13.4347 34.3439L-19.1315 33.4927L-21.12 39.4928L-24.4668 38.9927L-22.4783 32.9927L-26.0744 32.4553L-25.5956 29.2509L-21.4298 29.8734L-19.4823 23.9036L-23.0783 23.3663L-22.5995 20.1619L-18.4338 20.7843L-16.4453 14.7843L-13.134 15.279L-15.1225 21.2791L-9.42578 22.1303L-7.43727 16.1303L-4.09043 16.6303L-6.07893 22.6304L-2.48285 23.1677L-2.96165 26.3721L-7.12741 25.7497L-9.07499 31.7194L-5.47891 32.2567L-5.95771 35.4611L-10.1235 34.8387L-12.112 40.8387L-15.4232 40.344L-13.4347 34.3439ZM-12.4218 31.2193L-10.4386 25.2549L-16.1354 24.4037L-18.1186 30.3681L-12.4218 31.2193ZM5.83435 43.957C3.65059 43.6307 1.85412 42.9862 0.444931 42.0234C-0.960711 41.0368 -2.10894 39.8703 -2.99975 38.5239L1.09805 35.4598C2.49961 37.6105 4.43468 38.8703 6.90328 39.2392C8.23252 39.4378 9.25837 39.312 9.98083 38.8618C10.7033 38.4117 11.1319 37.7356 11.2667 36.8336C11.3695 36.1452 11.2648 35.5472 10.9524 35.0394C10.6435 34.508 9.91996 34.0723 8.7817 33.7323L6.37285 33.0448C3.78775 32.3188 1.97204 31.2346 0.925718 29.7921C-0.0968693 28.3532 -0.45211 26.5893 -0.140002 24.5005C0.0266911 23.3849 0.392827 22.3962 0.958404 21.5343C1.52398 20.6724 2.24807 19.9677 3.13069 19.4201C4.03703 18.876 5.08648 18.5111 6.27904 18.3253C7.49887 18.1193 8.84462 18.1263 10.3163 18.3462C12.1915 18.6264 13.7968 19.1696 15.1323 19.9758C16.4679 20.782 17.5608 21.831 18.4113 23.1229L14.2725 26.2172C13.782 25.4402 13.1414 24.7742 12.3507 24.2193C11.5873 23.6442 10.5647 23.2608 9.28296 23.0693C8.0724 22.8884 7.13849 22.9673 6.48124 23.3059C5.82399 23.6445 5.43861 24.1936 5.32512 24.9531C5.19744 25.8076 5.33072 26.4585 5.72497 26.9056C6.14295 27.3564 6.86173 27.7428 7.88131 28.065L10.2795 28.8238C12.7828 29.6103 14.5629 30.6892 15.6198 32.0605C16.6803 33.408 17.0492 35.1618 16.7265 37.3218C16.5491 38.5086 16.1724 39.5686 15.5962 40.5017C15.0199 41.4348 14.2632 42.1953 13.3261 42.7833C12.4126 43.3748 11.3205 43.7818 10.0496 44.0045C8.78231 44.2034 7.37722 44.1876 5.83435 43.957ZM26.1623 46.5576C24.3346 46.2845 23.0152 45.6142 22.204 44.5466C21.4166 43.4825 21.1559 42.0604 21.4219 40.2802L22.7892 31.1297L20.1544 30.7361L20.7662 26.6415L22.0836 26.8384C22.7957 26.9448 23.3071 26.8513 23.6179 26.558C23.9322 26.241 24.1372 25.762 24.233 25.1211L24.6905 22.0591L29.4259 22.7667L28.6705 27.8226L32.3734 28.3758L31.7616 32.4704L28.0587 31.9171L26.4893 42.4205L29.9073 42.9312L29.2955 47.0258L26.1623 46.5576ZM47.0556 49.6795C46.1061 49.5376 45.3553 49.1221 44.8031 48.4329C44.2746 47.7473 44.0018 46.8936 43.9846 45.8718L43.7709 45.8399C43.3052 47.0079 42.5379 47.8396 41.4689 48.3351C40.4035 48.8068 39.1587 48.9363 37.7345 48.7235C35.8593 48.4433 34.4978 47.7303 33.6498 46.5844C32.8018 45.4385 32.5002 44.0466 32.7449 42.4088C33.0393 40.4387 33.9695 39.0853 35.5356 38.3486C37.1289 37.5918 39.1599 37.3978 41.6285 37.7666L44.5837 38.2082L44.7592 37.0332C44.894 36.1313 44.763 35.3837 44.3663 34.7906C43.9732 34.1737 43.2188 33.7819 42.1032 33.6152C41.0588 33.4592 40.1943 33.5605 39.5098 33.9193C38.8252 34.2781 38.2386 34.7122 37.75 35.2215L35.0317 31.9762C35.958 30.9741 37.0369 30.2496 38.2685 29.8027C39.5273 29.3356 41.1418 29.2492 43.1119 29.5436C45.7704 29.9408 47.6774 30.8203 48.8329 32.182C49.9883 33.5437 50.3993 35.3401 50.066 37.5714L48.8424 45.7605L50.587 46.0211L49.9752 50.1157L47.0556 49.6795ZM40.2408 45.3488C41.119 45.48 41.8951 45.4019 42.569 45.1143C43.2666 44.8303 43.6793 44.261 43.8069 43.4065L44.1368 41.199L41.5732 40.816C39.5082 40.5074 38.371 41.0533 38.1617 42.4538L38.0819 42.9879C37.9791 43.6762 38.1165 44.2185 38.4941 44.6146C38.8752 44.9871 39.4574 45.2318 40.2408 45.3488ZM53.512 50.6442L56.305 31.9517L61.5745 32.739L61.101 35.9079L61.3147 35.9398C61.7924 35.0162 62.4999 34.2605 63.437 33.6725C64.3742 33.0846 65.5786 32.9005 67.0503 33.1204C68.9729 33.4077 70.3251 34.2649 71.1068 35.6921C71.9122 37.1228 72.1376 39.025 71.7829 41.3987L70.0326 53.1126L64.7631 52.3253L66.4496 41.0386C66.6304 39.828 66.5736 38.9095 66.2789 38.2831C65.9878 37.6329 65.3556 37.2352 64.3824 37.0897C63.9552 37.0259 63.5309 37.0232 63.1097 37.0816C62.6919 37.1162 62.2992 37.2274 61.9314 37.4151C61.5874 37.6064 61.2938 37.8658 61.0507 38.1935C60.8112 38.4974 60.6577 38.8749 60.5903 39.3259L58.7815 51.4315L53.512 50.6442ZM86.6548 52.3931L86.4767 52.3665C86.2598 52.8437 85.9634 53.2848 85.5875 53.6896C85.215 54.0708 84.7785 54.3938 84.2779 54.6588C83.8045 54.9035 83.2706 55.0664 82.6761 55.1474C82.1017 55.2557 81.5179 55.2656 80.9245 55.1769C78.5508 54.8222 76.8828 53.7237 75.9206 51.8812C74.9618 50.0151 74.7201 47.4916 75.1953 44.3109C75.6706 41.1302 76.6376 38.7996 78.0964 37.3189C79.5553 35.8382 81.4715 35.2752 83.8452 35.6299C85.0557 35.8108 86.0742 36.3027 86.9006 37.1056C87.7508 37.9121 88.2284 38.8571 88.3334 39.9405L88.5114 39.9671L90.1234 29.1788L95.3929 29.9662L91.4561 56.3137L86.1866 55.5263L86.6548 52.3931ZM83.3075 51.165C84.3044 51.314 85.1588 51.199 85.8706 50.82C86.6097 50.4208 87.0431 49.794 87.1708 48.9395L87.9954 43.4207C88.1231 42.5662 87.8901 41.8519 87.2964 41.2779C86.73 40.6837 85.9483 40.3121 84.9514 40.1631C83.9545 40.0142 83.0705 40.2461 82.2995 40.8589C81.5557 41.4515 81.0952 42.3412 80.9178 43.528L80.4337 46.768C80.2564 47.9549 80.435 48.9522 80.9695 49.7601C81.5312 50.5477 82.3106 51.016 83.3075 51.165ZM100.585 57.6778L98.6729 31.9851L104.014 32.7831L104.581 45.0618L104.867 52.1659L104.973 52.1819L107.572 45.5087L112.096 33.9907L118.006 34.8738L119.001 47.2164L119.5 54.3525L119.607 54.3684L121.956 47.658L126.124 36.0868L131.251 36.8529L121.77 60.8432L115.61 59.9228L114.488 45.996L114.091 40.3676L113.985 40.3517L111.925 45.613L106.78 58.6034L100.585 57.6778ZM136.741 41.9319C135.672 41.7723 134.925 41.4178 134.497 40.8686C134.097 40.2992 133.953 39.6348 134.067 38.8752L134.184 38.0919C134.297 37.3323 134.627 36.7506 135.173 36.3468C135.746 35.9229 136.566 35.7907 137.634 35.9503C138.702 36.1099 139.437 36.4744 139.837 37.0438C140.264 37.593 140.421 38.2474 140.308 39.0069L140.191 39.7902C140.077 40.5498 139.734 41.1416 139.161 41.5656C138.616 41.9694 137.809 42.0915 136.741 41.9319ZM133.808 43.532L139.077 44.3194L136.284 63.0119L131.015 62.2245L133.808 43.532ZM147.754 64.7256C145.926 64.4525 144.607 63.7822 143.796 62.7146C143.008 61.6506 142.747 60.2284 143.013 58.4482L144.381 49.2978L141.746 48.9041L142.358 44.8095L143.675 45.0064C144.387 45.1128 144.899 45.0193 145.209 44.726C145.524 44.409 145.729 43.93 145.825 43.2892L146.282 40.2272L151.017 40.9347L150.262 45.9906L153.965 46.5439L153.353 50.6384L149.65 50.0851L148.081 60.5885L151.499 61.0993L150.887 65.1938L147.754 64.7256ZM158.769 39.4358L164.039 40.2232L162.422 51.047L162.635 51.0789C163.113 50.1554 163.82 49.3996 164.758 48.8117C165.695 48.2237 166.899 48.0397 168.371 48.2596C170.293 48.5469 171.646 49.4041 172.427 50.8313C173.233 52.262 173.458 54.1642 173.103 56.5378L171.353 68.2518L166.084 67.4644L167.77 56.1777C167.951 54.9672 167.894 54.0487 167.599 53.4223C167.308 52.7721 166.676 52.3743 165.703 52.2289C165.276 52.1651 164.851 52.1623 164.43 52.2207C164.012 52.2554 163.62 52.3666 163.252 52.5543C162.908 52.7455 162.614 53.005 162.371 53.3327C162.132 53.6366 161.978 54.0141 161.911 54.4651L160.102 66.5707L154.833 65.7833L158.769 39.4358ZM185.168 44.909L182.891 60.1478C182.628 61.9043 182.776 63.2731 183.333 64.2542C183.893 65.2116 184.981 65.8109 186.595 66.052C188.209 66.2932 189.424 66.038 190.24 65.2863C191.06 64.5109 191.601 63.245 191.863 61.4885L194.14 46.2496L199.41 47.037L197.218 61.7062C196.945 63.5339 196.529 65.0976 195.971 66.3974C195.44 67.677 194.717 68.6974 193.803 69.4586C192.892 70.1961 191.787 70.6862 190.489 70.929C189.194 71.1481 187.657 71.1247 185.877 70.8587C184.096 70.5927 182.619 70.1657 181.445 69.5778C180.275 68.9661 179.362 68.1745 178.706 67.2029C178.054 66.2076 177.649 65.0188 177.492 63.6363C177.362 62.2337 177.433 60.6185 177.706 58.7908L179.898 44.1216L185.168 44.909ZM204.701 46.2988L209.97 47.0862L207.646 62.6455L207.859 62.6774L210.689 59.5695L215.093 55.6775L220.932 56.55L213.632 62.7756L218.851 75.3489L212.585 74.4126L209.565 65.8806L206.821 68.1642L206.034 73.4337L200.764 72.6463L204.701 46.2988ZM221.313 75.7168L224.106 57.0243L229.376 57.8116L228.769 61.8706L228.947 61.8972C229.12 61.3892 229.361 60.9155 229.669 60.4763C229.981 60.0133 230.355 59.6203 230.792 59.2972C231.252 58.9777 231.771 58.752 232.349 58.6199C232.93 58.4641 233.589 58.4412 234.325 58.5511L235.251 58.6894L234.516 63.6029L233.199 63.4061C231.656 63.1755 230.475 63.2053 229.655 63.4953C228.859 63.7889 228.379 64.4816 228.216 65.5735L226.583 76.5041L221.313 75.7168ZM249.036 79.8591C248.087 79.7172 247.336 79.3017 246.783 78.6125C246.255 77.9269 245.982 77.0732 245.965 76.0514L245.751 76.0195C245.286 77.1875 244.518 78.0192 243.449 78.5147C242.384 78.9865 241.139 79.1159 239.715 78.9031C237.84 78.6229 236.478 77.9099 235.63 76.764C234.782 75.6181 234.481 74.2263 234.725 72.5884C235.02 70.6183 235.95 69.2649 237.516 68.5283C239.109 67.7714 241.14 67.5774 243.609 67.9463L246.564 68.3878L246.74 67.2129C246.874 66.3109 246.743 65.5633 246.347 64.9702C245.954 64.3533 245.199 63.9615 244.084 63.7948C243.039 63.6388 242.175 63.7401 241.49 64.0989C240.806 64.4577 240.219 64.8918 239.73 65.4012L237.012 62.1558C237.938 61.1537 239.017 60.4292 240.249 59.9823C241.508 59.5152 243.122 59.4288 245.092 59.7232C247.751 60.1204 249.658 60.9999 250.813 62.3616C251.969 63.7233 252.38 65.5198 252.046 67.751L250.823 75.9401L252.567 76.2008L251.956 80.2953L249.036 79.8591ZM242.221 75.5284C243.099 75.6597 243.875 75.5815 244.549 75.2939C245.247 75.0099 245.66 74.4406 245.787 73.5861L246.117 71.3786L243.554 70.9956C241.489 70.687 240.351 71.233 240.142 72.6334L240.062 73.1675C239.96 73.8558 240.097 74.3981 240.474 74.7943C240.856 75.1667 241.438 75.4114 242.221 75.5284ZM261.218 60.5311C260.15 60.3715 259.402 60.0171 258.975 59.4679C258.574 58.8985 258.431 58.234 258.544 57.4744L258.662 56.6911C258.775 55.9316 259.105 55.3499 259.65 54.9461C260.223 54.5221 261.044 54.3899 262.112 54.5495C263.18 54.7091 263.914 55.0736 264.314 55.643C264.742 56.1922 264.899 56.8466 264.786 57.6062L264.668 58.3895C264.555 59.149 264.212 59.7408 263.639 60.1648C263.093 60.5686 262.286 60.6907 261.218 60.5311ZM258.285 62.1313L263.555 62.9186L260.762 81.6111L255.492 80.8238L258.285 62.1313ZM265.68 82.346L268.473 63.6535L273.743 64.4409L273.269 67.6097L273.483 67.6416C273.96 66.7181 274.668 65.9623 275.605 65.3744C276.542 64.7864 277.747 64.6024 279.218 64.8223C281.141 65.1095 282.493 65.9668 283.275 67.394C284.08 68.8247 284.306 70.7269 283.951 73.1005L282.201 84.8145L276.931 84.0271L278.618 72.7404C278.799 71.5299 278.742 70.6114 278.447 69.9849C278.156 69.3348 277.524 68.937 276.551 68.7916C276.123 68.7277 275.699 68.725 275.278 68.7834C274.86 68.8181 274.467 68.9292 274.1 69.117C273.755 69.3082 273.462 69.5677 273.219 69.8954C272.979 70.1993 272.826 70.5768 272.758 71.0278L270.95 83.1334L265.68 82.346ZM294.624 87.1075C293.199 86.8947 291.963 86.4794 290.915 85.8618C289.87 85.2203 289.018 84.4257 288.359 83.4779C287.727 82.5099 287.3 81.3905 287.077 80.1196C286.878 78.8523 286.891 77.4709 287.114 75.9755C287.334 74.5039 287.723 73.203 288.28 72.0729C288.84 70.9191 289.552 69.9699 290.416 69.2254C291.303 68.4843 292.326 67.9699 293.486 67.6821C294.649 67.3705 295.93 67.3193 297.331 67.5286C298.873 67.7591 300.152 68.217 301.166 68.9024C302.203 69.5913 303.001 70.4263 303.558 71.4074C304.139 72.392 304.496 73.489 304.631 74.6982C304.793 75.8872 304.78 77.1107 304.592 78.3687L304.358 79.9353L292.36 78.1425L292.317 78.4273C292.133 79.6616 292.318 80.6963 292.872 81.5315C293.431 82.3429 294.422 82.855 295.846 83.0678C296.938 83.2309 297.86 83.1503 298.612 82.8259C299.368 82.4778 300.089 82.0394 300.774 81.511L302.919 85.1803C301.943 86.0293 300.738 86.6258 299.303 86.9695C297.893 87.3169 296.333 87.3628 294.624 87.1075ZM296.858 71.4254C295.789 71.2658 294.894 71.496 294.17 72.1159C293.474 72.7156 293.039 73.5969 292.865 74.76L292.822 75.0449L299.374 76.0238L299.422 75.7033C299.592 74.564 299.467 73.6111 299.048 72.8447C298.656 72.0581 297.926 71.585 296.858 71.4254ZM326.792 85.1801L321.095 84.3289L319.107 90.329L315.76 89.8289L317.749 83.8289L314.153 83.2915L314.631 80.0871L318.797 80.7096L320.745 74.7398L317.149 74.2025L317.627 70.9981L321.793 71.6205L323.782 65.6205L327.093 66.1153L325.104 72.1153L330.801 72.9665L332.79 66.9665L336.137 67.4665L334.148 73.4666L337.744 74.0039L337.265 77.2083L333.1 76.5859L331.152 82.5556L334.748 83.0929L334.269 86.2974L330.103 85.6749L328.115 91.6749L324.804 91.1802L326.792 85.1801ZM327.805 82.0555L329.788 76.0911L324.092 75.2399L322.108 81.2043L327.805 82.0555ZM346.061 94.7932C343.878 94.4669 342.081 93.8224 340.672 92.8596C339.266 91.873 338.118 90.7065 337.227 89.3601L341.325 86.296C342.727 88.4468 344.662 89.7065 347.13 90.0754C348.459 90.274 349.485 90.1482 350.208 89.6981C350.93 89.2479 351.359 88.5718 351.494 87.6698C351.596 86.9814 351.492 86.3834 351.179 85.8757C350.87 85.3442 350.147 84.9085 349.009 84.5685L346.6 83.881C344.015 83.155 342.199 82.0708 341.153 80.6283C340.13 79.1894 339.775 77.4255 340.087 75.3367C340.254 74.2211 340.62 73.2324 341.185 72.3705C341.751 71.5086 342.475 70.8039 343.358 70.2563C344.264 69.7123 345.313 69.3473 346.506 69.1615C347.726 68.9555 349.072 68.9625 350.543 69.1824C352.418 69.4626 354.024 70.0058 355.359 70.812C356.695 71.6182 357.788 72.6672 358.638 73.9591L354.499 77.0534C354.009 76.2764 353.368 75.6104 352.578 75.0555C351.814 74.4804 350.792 74.0971 349.51 73.9055C348.299 73.7246 347.365 73.8035 346.708 74.1421C346.051 74.4807 345.666 75.0298 345.552 75.7893C345.424 76.6438 345.558 77.2947 345.952 77.7419C346.37 78.1926 347.089 78.579 348.108 78.9012L350.506 79.66C353.01 80.4465 354.79 81.5254 355.847 82.8967C356.907 84.2442 357.276 85.998 356.953 88.158C356.776 89.3448 356.399 90.4048 355.823 91.3379C355.247 92.271 354.49 93.0315 353.553 93.6195C352.64 94.211 351.547 94.618 350.277 94.8407C349.009 95.0396 347.604 95.0238 346.061 94.7932ZM366.389 97.3938C364.562 97.1207 363.242 96.4504 362.431 95.3828C361.644 94.3187 361.383 92.8966 361.649 91.1164L363.016 81.9659L360.381 81.5723L360.993 77.4777L362.311 77.6746C363.023 77.781 363.534 77.6875 363.845 77.3942C364.159 77.0772 364.364 76.5982 364.46 75.9573L364.917 72.8953L369.653 73.6029L368.897 78.6588L372.6 79.212L371.988 83.3066L368.286 82.7533L366.716 93.2567L370.134 93.7674L369.522 97.862L366.389 97.3938ZM380.849 99.9911C379.472 99.7854 378.271 99.3755 377.247 98.7614C376.246 98.1508 375.43 97.3615 374.798 96.3935C374.19 95.429 373.774 94.3113 373.552 93.0405C373.329 91.7696 373.33 90.3865 373.553 88.8911C373.776 87.3957 374.18 86.0729 374.765 84.9226C375.349 83.7723 376.071 82.8368 376.931 82.116C377.819 81.3749 378.83 80.8587 379.966 80.5673C381.125 80.2795 382.393 80.2384 383.769 80.4441C385.146 80.6498 386.335 81.058 387.336 81.6686C388.36 82.2827 389.177 83.072 389.785 84.0365C390.42 84.9808 390.849 86.0883 391.072 87.3592C391.294 88.63 391.294 90.0132 391.071 91.5086C390.847 93.004 390.443 94.3268 389.859 95.4771C389.274 96.6273 388.539 97.573 387.651 98.314C386.788 99.0586 385.776 99.5748 384.617 99.8626C383.482 100.154 382.226 100.197 380.849 99.9911ZM381.471 95.8254C382.516 95.9814 383.371 95.7816 384.036 95.2258C384.701 94.67 385.123 93.7988 385.3 92.6119L385.869 88.8022C386.047 87.6154 385.898 86.659 385.425 85.933C384.951 85.207 384.191 84.7659 383.147 84.6099C382.103 84.4538 381.248 84.6537 380.582 85.2095C379.917 85.7652 379.495 86.6365 379.318 87.8233L378.749 91.633C378.572 92.8199 378.72 93.7763 379.194 94.5023C379.668 95.2283 380.427 95.6693 381.471 95.8254ZM396.219 82.7411L401.489 83.5285L401.02 86.6617L401.198 86.6883C401.616 85.6829 402.337 84.9171 403.362 84.3908C404.41 83.868 405.54 83.6971 406.751 83.8779C409.124 84.2326 410.792 85.3312 411.755 87.1736C412.717 89.016 412.96 91.5276 412.485 94.7083C412.01 97.889 411.041 100.232 409.579 101.736C408.12 103.217 406.204 103.78 403.83 103.425C403.213 103.333 402.645 103.151 402.128 102.879C401.607 102.632 401.144 102.32 400.739 101.944C400.361 101.548 400.05 101.113 399.805 100.64C399.564 100.143 399.41 99.6341 399.342 99.1144L399.164 99.0878L397.632 109.342L392.362 108.555L396.219 82.7411ZM402.724 98.8917C403.721 99.0407 404.591 98.8188 405.335 98.2262C406.106 97.6135 406.58 96.7137 406.757 95.5268L407.241 92.2868C407.419 91.1 407.227 90.1127 406.665 89.3251C406.13 88.5172 405.365 88.0388 404.368 87.8898C403.371 87.7409 402.503 87.866 401.764 88.2651C401.052 88.6441 400.632 89.2608 400.504 90.1154L399.68 95.6341C399.552 96.4886 399.771 97.213 400.338 97.8072C400.932 98.3812 401.727 98.7427 402.724 98.8917ZM418.385 105.163L416.473 79.4703L421.814 80.2683L422.381 92.547L422.667 99.6512L422.774 99.6671L425.372 92.9939L429.896 81.476L435.806 82.3591L436.801 94.7016L437.3 101.838L437.407 101.854L439.757 95.1432L443.924 83.572L449.051 84.3381L439.57 108.328L433.41 107.408L432.288 93.4813L431.892 87.8529L431.785 87.8369L429.725 93.0982L424.58 106.089L418.385 105.163ZM461.552 111.613C460.602 111.471 459.852 111.055 459.299 110.366C458.771 109.681 458.498 108.827 458.481 107.805L458.267 107.773C457.801 108.941 457.034 109.773 455.965 110.269C454.9 110.74 453.655 110.87 452.231 110.657C450.356 110.377 448.994 109.664 448.146 108.518C447.298 107.372 446.996 105.98 447.241 104.342C447.536 102.372 448.466 101.019 450.032 100.282C451.625 99.5252 453.656 99.3312 456.125 99.7001L459.08 100.142L459.255 98.9667C459.39 98.0647 459.259 97.3171 458.863 96.724C458.469 96.1071 457.715 95.7153 456.599 95.5486C455.555 95.3926 454.691 95.4939 454.006 95.8527C453.321 96.2115 452.735 96.6456 452.246 97.155L449.528 93.9096C450.454 92.9075 451.533 92.183 452.765 91.7361C454.024 91.269 455.638 91.1826 457.608 91.477C460.267 91.8742 462.174 92.7537 463.329 94.1154C464.485 95.4771 464.896 97.2736 464.562 99.5048L463.339 107.694L465.083 107.955L464.471 112.049L461.552 111.613ZM454.737 107.282C455.615 107.413 456.391 107.335 457.065 107.048C457.763 106.764 458.175 106.194 458.303 105.34L458.633 103.132L456.069 102.749C454.004 102.441 452.867 102.987 452.658 104.387L452.578 104.921C452.475 105.61 452.613 106.152 452.99 106.548C453.371 106.92 453.954 107.165 454.737 107.282ZM468.008 112.578L470.801 93.8851L476.071 94.6724L475.464 98.7314L475.642 98.758C475.815 98.25 476.056 97.7763 476.364 97.3371C476.676 96.8741 477.05 96.481 477.487 96.158C477.947 95.8385 478.466 95.6127 479.044 95.4807C479.625 95.3249 480.284 95.302 481.02 95.4119L481.946 95.5502L481.211 100.464L479.894 100.267C478.351 100.036 477.17 100.066 476.35 100.356C475.554 100.65 475.074 101.342 474.911 102.434L473.278 113.365L468.008 112.578ZM502.312 111.406L496.616 110.555L494.627 116.555L491.28 116.055L493.269 110.055L489.673 109.518L490.152 106.313L494.317 106.936L496.265 100.966L492.669 100.428L493.148 97.2241L497.313 97.8465L499.302 91.8465L502.613 92.3412L500.625 98.3413L506.321 99.1925L508.31 93.1924L511.657 93.6925L509.668 99.6925L513.264 100.23L512.786 103.434L508.62 102.812L506.672 108.782L510.268 109.319L509.789 112.523L505.624 111.901L503.635 117.901L500.324 117.406L502.312 111.406ZM503.325 108.282L505.309 102.317L499.612 101.466L497.629 107.43L503.325 108.282ZM521.582 121.019C519.398 120.693 517.601 120.048 516.192 119.086C514.786 118.099 513.638 116.933 512.747 115.586L516.845 112.522C518.247 114.673 520.182 115.933 522.65 116.301C523.98 116.5 525.006 116.374 525.728 115.924C526.45 115.474 526.879 114.798 527.014 113.896C527.117 113.207 527.012 112.609 526.7 112.102C526.391 111.57 525.667 111.134 524.529 110.795L522.12 110.107C519.535 109.381 517.719 108.297 516.673 106.854C515.65 105.415 515.295 103.652 515.607 101.563C515.774 100.447 516.14 99.4584 516.706 98.5965C517.271 97.7346 517.995 97.0299 518.878 96.4823C519.784 95.9382 520.834 95.5733 522.026 95.3875C523.246 95.1815 524.592 95.1885 526.063 95.4084C527.939 95.6885 529.544 96.2317 530.88 97.038C532.215 97.8442 533.308 98.8932 534.158 100.185L530.02 103.279C529.529 102.502 528.889 101.836 528.098 101.281C527.335 100.706 526.312 100.323 525.03 100.132C523.82 99.9506 522.886 100.029 522.228 100.368C521.571 100.707 521.186 101.256 521.072 102.015C520.945 102.87 521.078 103.521 521.472 103.968C521.89 104.419 522.609 104.805 523.629 105.127L526.027 105.886C528.53 106.673 530.31 107.751 531.367 109.123C532.428 110.47 532.796 112.224 532.474 114.384C532.296 115.571 531.92 116.631 531.343 117.564C530.767 118.497 530.01 119.257 529.073 119.845C528.16 120.437 527.068 120.844 525.797 121.067C524.53 121.266 523.124 121.25 521.582 121.019ZM541.909 123.62C540.082 123.347 538.762 122.676 537.951 121.609C537.164 120.545 536.903 119.123 537.169 117.342L538.536 108.192L535.902 107.798L536.513 103.704L537.831 103.901C538.543 104.007 539.054 103.913 539.365 103.62C539.679 103.303 539.884 102.824 539.98 102.183L540.438 99.1213L545.173 99.8289L544.418 104.885L548.121 105.438L547.509 109.533L543.806 108.979L542.236 119.483L545.655 119.993L545.043 124.088L541.909 123.62ZM562.803 126.742C561.853 126.6 561.102 126.184 560.55 125.495C560.022 124.809 559.749 123.956 559.732 122.934L559.518 122.902C559.052 124.07 558.285 124.902 557.216 125.397C556.151 125.869 554.906 125.998 553.482 125.786C551.607 125.506 550.245 124.792 549.397 123.647C548.549 122.501 548.247 121.109 548.492 119.471C548.786 117.501 549.717 116.147 551.283 115.411C552.876 114.654 554.907 114.46 557.376 114.829L560.331 115.27L560.506 114.095C560.641 113.193 560.51 112.446 560.114 111.853C559.72 111.236 558.966 110.844 557.85 110.677C556.806 110.521 555.941 110.623 555.257 110.981C554.572 111.34 553.986 111.774 553.497 112.284L550.779 109.038C551.705 108.036 552.784 107.312 554.016 106.865C555.275 106.398 556.889 106.311 558.859 106.606C561.518 107.003 563.425 107.882 564.58 109.244C565.736 110.606 566.147 112.402 565.813 114.634L564.59 122.823L566.334 123.083L565.722 127.178L562.803 126.742ZM555.988 122.411C556.866 122.542 557.642 122.464 558.316 122.176C559.014 121.892 559.426 121.323 559.554 120.469L559.884 118.261L557.32 117.878C555.255 117.57 554.118 118.116 553.909 119.516L553.829 120.05C553.726 120.738 553.864 121.281 554.241 121.677C554.622 122.049 555.205 122.294 555.988 122.411ZM569.259 127.706L572.052 109.014L577.322 109.801L576.848 112.97L577.062 113.002C577.54 112.078 578.247 111.323 579.184 110.735C580.121 110.147 581.326 109.963 582.797 110.183C584.72 110.47 586.072 111.327 586.854 112.754C587.659 114.185 587.885 116.087 587.53 118.461L585.78 130.175L580.51 129.387L582.197 118.101C582.378 116.89 582.321 115.972 582.026 115.345C581.735 114.695 581.103 114.297 580.13 114.152C579.702 114.088 579.278 114.085 578.857 114.144C578.439 114.178 578.046 114.29 577.679 114.477C577.335 114.669 577.041 114.928 576.798 115.256C576.558 115.56 576.405 115.937 576.338 116.388L574.529 128.494L569.259 127.706ZM602.402 129.455L602.224 129.429C602.007 129.906 601.711 130.347 601.335 130.752C600.962 131.133 600.526 131.456 600.025 131.721C599.552 131.966 599.018 132.129 598.423 132.21C597.849 132.318 597.265 132.328 596.672 132.239C594.298 131.884 592.63 130.786 591.668 128.943C590.709 127.077 590.467 124.554 590.943 121.373C591.418 118.192 592.385 115.862 593.844 114.381C595.302 112.9 597.219 112.337 599.592 112.692C600.803 112.873 601.821 113.365 602.648 114.168C603.498 114.974 603.976 115.919 604.081 117.003L604.259 117.029L605.871 106.241L611.14 107.028L607.203 133.376L601.934 132.589L602.402 129.455ZM599.055 128.227C600.052 128.376 600.906 128.261 601.618 127.882C602.357 127.483 602.79 126.856 602.918 126.002L603.743 120.483C603.87 119.628 603.637 118.914 603.044 118.34C602.477 117.746 601.696 117.374 600.699 117.225C599.702 117.076 598.818 117.308 598.047 117.921C597.303 118.514 596.842 119.403 596.665 120.59L596.181 123.83C596.004 125.017 596.182 126.014 596.717 126.822C597.278 127.61 598.058 128.078 599.055 128.227ZM616.332 134.74L614.42 109.047L619.761 109.845L620.329 122.124L620.614 129.228L620.721 129.244L623.319 122.571L627.843 111.053L633.753 111.936L634.748 124.279L635.247 131.415L635.354 131.431L637.704 124.72L641.871 113.149L646.998 113.915L637.517 137.905L631.357 136.985L630.235 123.058L629.839 117.43L629.732 117.414L627.672 122.675L622.528 135.666L616.332 134.74ZM652.488 118.994C651.42 118.834 650.672 118.48 650.244 117.931C649.844 117.361 649.701 116.697 649.814 115.937L649.931 115.154C650.045 114.395 650.374 113.813 650.92 113.409C651.493 112.985 652.313 112.853 653.382 113.012C654.45 113.172 655.184 113.537 655.584 114.106C656.012 114.655 656.169 115.31 656.055 116.069L655.938 116.852C655.825 117.612 655.481 118.204 654.908 118.628C654.363 119.032 653.556 119.154 652.488 118.994ZM649.555 120.594L654.825 121.382L652.032 140.074L646.762 139.287L649.555 120.594ZM663.501 141.788C661.673 141.515 660.354 140.844 659.543 139.777C658.755 138.713 658.495 137.291 658.761 135.51L660.128 126.36L657.493 125.966L658.105 121.872L659.422 122.069C660.134 122.175 660.646 122.082 660.957 121.788C661.271 121.471 661.476 120.992 661.572 120.351L662.029 117.289L666.765 117.997L666.009 123.053L669.712 123.606L669.1 127.701L665.397 127.147L663.828 137.651L667.246 138.161L666.634 142.256L663.501 141.788ZM674.517 116.498L679.786 117.285L678.169 128.109L678.382 128.141C678.86 127.218 679.568 126.462 680.505 125.874C681.442 125.286 682.646 125.102 684.118 125.322C686.041 125.609 687.393 126.466 688.175 127.893C688.98 129.324 689.205 131.226 688.851 133.6L687.1 145.314L681.831 144.527L683.517 133.24C683.698 132.029 683.641 131.111 683.347 130.484C683.055 129.834 682.423 129.437 681.45 129.291C681.023 129.227 680.599 129.225 680.177 129.283C679.76 129.318 679.367 129.429 678.999 129.616C678.655 129.808 678.362 130.067 678.118 130.395C677.879 130.699 677.725 131.076 677.658 131.527L675.849 143.633L670.58 142.846L674.517 116.498ZM700.915 121.971L698.638 137.21C698.375 138.967 698.523 140.335 699.08 141.316C699.641 142.274 700.728 142.873 702.342 143.114C703.956 143.355 705.171 143.1 705.987 142.349C706.807 141.573 707.348 140.307 707.61 138.551L709.887 123.312L715.157 124.099L712.965 138.768C712.692 140.596 712.276 142.16 711.718 143.46C711.187 144.739 710.464 145.76 709.55 146.521C708.639 147.258 707.534 147.748 706.236 147.991C704.942 148.21 703.404 148.187 701.624 147.921C699.844 147.655 698.367 147.228 697.193 146.64C696.022 146.028 695.109 145.237 694.453 144.265C693.801 143.27 693.397 142.081 693.239 140.698C693.109 139.296 693.18 137.681 693.454 135.853L695.645 121.184L700.915 121.971ZM720.448 123.361L725.718 124.148L723.393 139.708L723.606 139.74L726.437 136.632L730.84 132.74L736.679 133.612L729.379 139.838L734.598 152.411L728.332 151.475L725.312 142.943L722.568 145.226L721.781 150.496L716.511 149.709L720.448 123.361ZM737.06 152.779L739.853 134.086L745.123 134.874L744.516 138.933L744.695 138.959C744.867 138.451 745.108 137.978 745.416 137.538C745.728 137.075 746.102 136.682 746.539 136.359C746.999 136.04 747.518 135.814 748.096 135.682C748.678 135.526 749.336 135.503 750.072 135.613L750.998 135.752L750.264 140.665L748.946 140.468C747.403 140.238 746.222 140.267 745.402 140.557C744.606 140.851 744.126 141.544 743.963 142.636L742.33 153.566L737.06 152.779ZM764.783 156.921C763.834 156.779 763.083 156.364 762.531 155.675C762.002 154.989 761.729 154.135 761.712 153.114L761.499 153.082C761.033 154.25 760.265 155.081 759.197 155.577C758.131 156.049 756.886 156.178 755.462 155.965C753.587 155.685 752.225 154.972 751.377 153.826C750.529 152.68 750.228 151.288 750.473 149.651C750.767 147.68 751.697 146.327 753.263 145.59C754.857 144.834 756.887 144.64 759.356 145.008L762.311 145.45L762.487 144.275C762.622 143.373 762.491 142.626 762.094 142.032C761.701 141.415 760.946 141.024 759.831 140.857C758.786 140.701 757.922 140.802 757.237 141.161C756.553 141.52 755.966 141.954 755.478 142.463L752.759 139.218C753.686 138.216 754.765 137.491 755.996 137.044C757.255 136.577 758.869 136.491 760.84 136.785C763.498 137.183 765.405 138.062 766.56 139.424C767.716 140.785 768.127 142.582 767.794 144.813L766.57 153.002L768.315 153.263L767.703 157.357L764.783 156.921ZM757.968 152.591C758.847 152.722 759.623 152.644 760.297 152.356C760.994 152.072 761.407 151.503 761.535 150.648L761.864 148.441L759.301 148.058C757.236 147.749 756.099 148.295 755.889 149.696L755.81 150.23C755.707 150.918 755.844 151.46 756.222 151.856C756.603 152.229 757.185 152.474 757.968 152.591ZM776.965 137.593C775.897 137.434 775.149 137.079 774.722 136.53C774.322 135.961 774.178 135.296 774.292 134.537L774.409 133.753C774.522 132.994 774.852 132.412 775.397 132.008C775.97 131.584 776.791 131.452 777.859 131.612C778.927 131.771 779.661 132.136 780.062 132.705C780.489 133.254 780.646 133.909 780.533 134.668L780.416 135.452C780.302 136.211 779.959 136.803 779.386 137.227C778.84 137.631 778.033 137.753 776.965 137.593ZM774.033 139.193L779.302 139.981L776.509 158.673L771.24 157.886L774.033 139.193ZM781.427 159.408L784.22 140.716L789.49 141.503L789.016 144.672L789.23 144.704C789.708 143.78 790.415 143.025 791.352 142.437C792.289 141.849 793.494 141.665 794.966 141.884C796.888 142.172 798.24 143.029 799.022 144.456C799.827 145.887 800.053 147.789 799.698 150.163L797.948 161.877L792.678 161.089L794.365 149.803C794.546 148.592 794.489 147.674 794.194 147.047C793.903 146.397 793.271 145.999 792.298 145.854C791.87 145.79 791.446 145.787 791.025 145.846C790.607 145.88 790.214 145.991 789.847 146.179C789.503 146.37 789.209 146.63 788.966 146.958C788.726 147.261 788.573 147.639 788.506 148.09L786.697 160.196L781.427 159.408ZM810.371 164.17C808.947 163.957 807.71 163.542 806.662 162.924C805.617 162.283 804.766 161.488 804.106 160.54C803.474 159.572 803.047 158.453 802.825 157.182C802.626 155.914 802.638 154.533 802.861 153.038C803.081 151.566 803.47 150.265 804.027 149.135C804.588 147.981 805.3 147.032 806.163 146.288C807.05 145.547 808.074 145.032 809.233 144.744C810.396 144.433 811.677 144.382 813.078 144.591C814.621 144.821 815.899 145.279 816.913 145.965C817.95 146.653 818.748 147.488 819.305 148.47C819.886 149.454 820.244 150.551 820.378 151.76C820.541 152.949 820.528 154.173 820.34 155.431L820.106 156.998L808.107 155.205L808.064 155.49C807.88 156.724 808.065 157.759 808.62 158.594C809.178 159.405 810.169 159.917 811.593 160.13C812.685 160.293 813.607 160.212 814.359 159.888C815.115 159.54 815.836 159.102 816.521 158.573L818.667 162.242C817.69 163.092 816.485 163.688 815.051 164.032C813.64 164.379 812.08 164.425 810.371 164.17ZM812.605 148.488C811.537 148.328 810.641 148.558 809.917 149.178C809.221 149.778 808.786 150.659 808.612 151.822L808.57 152.107L815.121 153.086L815.169 152.765C815.339 151.626 815.214 150.673 814.795 149.907C814.403 149.12 813.673 148.647 812.605 148.488ZM842.539 162.242L836.843 161.391L834.854 167.391L831.507 166.891L833.496 160.891L829.9 160.354L830.379 157.149L834.544 157.772L836.492 151.802L832.896 151.265L833.375 148.06L837.54 148.683L839.529 142.683L842.84 143.177L840.852 149.177L846.548 150.029L848.537 144.029L851.884 144.529L849.895 150.529L853.491 151.066L853.012 154.27L848.847 153.648L846.899 159.618L850.495 160.155L850.016 163.36L845.851 162.737L843.862 168.737L840.551 168.242L842.539 162.242ZM843.552 159.118L845.535 153.153L839.839 152.302L837.856 158.267L843.552 159.118ZM861.808 171.855C859.625 171.529 857.828 170.885 856.419 169.922C855.013 168.935 853.865 167.769 852.974 166.422L857.072 163.358C858.474 165.509 860.409 166.769 862.877 167.138C864.207 167.336 865.233 167.21 865.955 166.76C866.677 166.31 867.106 165.634 867.241 164.732C867.344 164.044 867.239 163.446 866.927 162.938C866.618 162.406 865.894 161.971 864.756 161.631L862.347 160.943C859.762 160.217 857.946 159.133 856.9 157.691C855.877 156.252 855.522 154.488 855.834 152.399C856.001 151.283 856.367 150.295 856.933 149.433C857.498 148.571 858.222 147.866 859.105 147.318C860.011 146.774 861.061 146.41 862.253 146.224C863.473 146.018 864.819 146.025 866.29 146.245C868.166 146.525 869.771 147.068 871.106 147.874C872.442 148.68 873.535 149.729 874.385 151.021L870.247 154.116C869.756 153.339 869.116 152.673 868.325 152.118C867.561 151.543 866.539 151.159 865.257 150.968C864.047 150.787 863.113 150.866 862.455 151.204C861.798 151.543 861.413 152.092 861.299 152.852C861.172 153.706 861.305 154.357 861.699 154.804C862.117 155.255 862.836 155.641 863.855 155.963L866.254 156.722C868.757 157.509 870.537 158.588 871.594 159.959C872.654 161.306 873.023 163.06 872.701 165.22C872.523 166.407 872.147 167.467 871.57 168.4C870.994 169.333 870.237 170.094 869.3 170.682C868.387 171.273 867.295 171.68 866.024 171.903C864.756 172.102 863.351 172.086 861.808 171.855ZM882.136 174.456C880.309 174.183 878.989 173.513 878.178 172.445C877.391 171.381 877.13 169.959 877.396 168.179L878.763 159.028L876.129 158.634L876.74 154.54L878.058 154.737C878.77 154.843 879.281 154.75 879.592 154.456C879.906 154.139 880.111 153.66 880.207 153.02L880.665 149.958L885.4 150.665L884.645 155.721L888.347 156.274L887.736 160.369L884.033 159.815L882.463 170.319L885.881 170.83L885.27 174.924L882.136 174.456ZM896.596 177.053C895.219 176.848 894.019 176.438 892.994 175.824C891.993 175.213 891.177 174.424 890.545 173.456C889.937 172.491 889.522 171.374 889.299 170.103C889.076 168.832 889.077 167.449 889.3 165.953C889.524 164.458 889.928 163.135 890.512 161.985C891.096 160.835 891.819 159.899 892.679 159.178C893.566 158.437 894.577 157.921 895.713 157.63C896.872 157.342 898.14 157.301 899.517 157.506C900.893 157.712 902.082 158.12 903.083 158.731C904.107 159.345 904.924 160.134 905.532 161.099C906.167 162.043 906.596 163.151 906.819 164.421C907.042 165.692 907.041 167.075 906.818 168.571C906.594 170.066 906.19 171.389 905.606 172.539C905.022 173.69 904.286 174.635 903.399 175.376C902.535 176.121 901.524 176.637 900.364 176.925C899.229 177.216 897.973 177.259 896.596 177.053ZM897.218 172.888C898.263 173.044 899.118 172.844 899.783 172.288C900.449 171.732 900.87 170.861 901.047 169.674L901.617 165.864C901.794 164.678 901.646 163.721 901.172 162.995C900.698 162.269 899.939 161.828 898.894 161.672C897.85 161.516 896.995 161.716 896.329 162.272C895.664 162.827 895.243 163.699 895.065 164.886L894.496 168.695C894.319 169.882 894.467 170.838 894.941 171.564C895.415 172.29 896.174 172.732 897.218 172.888ZM911.966 159.803L917.236 160.591L916.768 163.724L916.946 163.75C917.363 162.745 918.084 161.979 919.109 161.453C920.158 160.93 921.287 160.759 922.498 160.94C924.872 161.295 926.539 162.393 927.502 164.236C928.464 166.078 928.708 168.59 928.232 171.77C927.757 174.951 926.788 177.294 925.326 178.798C923.867 180.279 921.951 180.842 919.577 180.487C918.96 180.395 918.393 180.213 917.875 179.942C917.354 179.694 916.891 179.382 916.486 179.006C916.109 178.61 915.797 178.175 915.553 177.702C915.311 177.205 915.157 176.696 915.089 176.177L914.911 176.15L913.379 186.404L908.109 185.617L911.966 159.803ZM918.471 175.954C919.468 176.103 920.338 175.881 921.082 175.288C921.853 174.676 922.327 173.776 922.504 172.589L922.989 169.349C923.166 168.162 922.974 167.175 922.412 166.387C921.877 165.579 921.112 165.101 920.115 164.952C919.118 164.803 918.25 164.928 917.511 165.327C916.799 165.706 916.379 166.323 916.252 167.178L915.427 172.696C915.299 173.551 915.519 174.275 916.085 174.869C916.679 175.443 917.474 175.805 918.471 175.954ZM934.132 182.225L932.22 156.532L937.561 157.33L938.129 169.609L938.414 176.713L938.521 176.729L941.119 170.056L945.643 158.538L951.554 159.421L952.549 171.764L953.048 178.9L953.154 178.916L955.504 172.205L959.671 160.634L964.799 161.4L955.317 185.391L949.158 184.47L948.035 170.543L947.639 164.915L947.532 164.899L945.472 170.16L940.328 183.151L934.132 182.225ZM977.299 188.675C976.35 188.533 975.599 188.118 975.046 187.428C974.518 186.743 974.245 185.889 974.228 184.867L974.014 184.835C973.549 186.003 972.781 186.835 971.712 187.331C970.647 187.802 969.402 187.932 967.978 187.719C966.103 187.439 964.741 186.726 963.893 185.58C963.045 184.434 962.744 183.042 962.988 181.404C963.283 179.434 964.213 178.081 965.779 177.344C967.372 176.587 969.403 176.393 971.872 176.762L974.827 177.204L975.003 176.029C975.137 175.127 975.006 174.379 974.61 173.786C974.217 173.169 973.462 172.778 972.347 172.611C971.302 172.455 970.438 172.556 969.753 172.915C969.069 173.274 968.482 173.708 967.993 174.217L965.275 170.972C966.201 169.97 967.28 169.245 968.512 168.798C969.771 168.331 971.385 168.245 973.355 168.539C976.014 168.936 977.921 169.816 979.076 171.178C980.232 172.539 980.643 174.336 980.309 176.567L979.086 184.756L980.83 185.017L980.219 189.111L977.299 188.675ZM970.484 184.344C971.362 184.476 972.138 184.397 972.812 184.11C973.51 183.826 973.923 183.257 974.05 182.402L974.38 180.195L971.817 179.812C969.752 179.503 968.614 180.049 968.405 181.449L968.325 181.983C968.222 182.672 968.36 183.214 968.737 183.61C969.119 183.983 969.701 184.227 970.484 184.344ZM983.755 189.64L986.548 170.947L991.818 171.735L991.211 175.794L991.389 175.82C991.562 175.312 991.803 174.839 992.111 174.399C992.423 173.936 992.797 173.543 993.234 173.22C993.694 172.901 994.213 172.675 994.791 172.543C995.373 172.387 996.031 172.364 996.767 172.474L997.693 172.612L996.959 177.526L995.641 177.329C994.098 177.099 992.917 177.128 992.097 177.418C991.301 177.712 990.821 178.405 990.658 179.496L989.025 190.427L983.755 189.64Z" fill="black"/>
</svg>
