<?xml version="1.0" standalone="no"?>
<!DOCTYPE svg PUBLIC "-//W3C//DTD SVG 20010904//EN"
 "http://www.w3.org/TR/2001/REC-SVG-20010904/DTD/svg10.dtd">
<svg version="1.0" xmlns="http://www.w3.org/2000/svg"
 width="24px" height="24px" viewBox="0 0 1280.000000 1280.000000"
 preserveAspectRatio="xMidYMid meet">
<metadata>
Created by potrace 1.15, written by Peter Selinger 2001-2017
</metadata>
<g transform="translate(0.000000,1280.000000) scale(0.100000,-0.100000)"
fill="#000000" stroke="none">
<path d="M8200 10995 c-94 -20 -233 -94 -312 -165 -155 -140 -250 -361 -221
-510 8 -37 7 -52 -1 -55 -96 -26 -302 -97 -377 -129 l-96 -43 52 73 c145 201
251 500 230 643 -11 73 -20 84 -63 76 -60 -11 -167 -73 -236 -137 -205 -187
-288 -493 -192 -704 l23 -50 -106 -71 c-122 -82 -210 -151 -328 -259 l-84 -77
22 -23 22 -23 76 71 c42 39 105 95 141 124 81 65 270 194 285 194 6 0 25 -20
42 -44 117 -166 541 -380 690 -348 36 8 38 10 37 46 -2 66 -69 182 -154 267
-110 111 -242 170 -400 181 -31 3 -21 9 89 56 152 65 351 126 356 109 28 -102
99 -216 209 -333 135 -145 311 -260 388 -252 31 3 33 6 36 44 5 66 -25 183
-68 272 -67 136 -180 242 -316 297 l-55 23 43 6 c87 12 275 26 364 26 l91 0 6
-72 c13 -176 154 -455 296 -591 54 -51 111 -87 140 -87 20 0 43 112 43 204 -1
107 -20 185 -66 281 -38 76 -126 181 -182 215 -19 12 -33 24 -31 26 12 12 439
-83 476 -105 10 -6 10 -17 2 -47 -16 -57 -13 -239 5 -335 41 -215 129 -405
207 -445 34 -18 41 -12 82 73 39 80 58 168 58 268 0 137 -35 246 -115 363 -16
23 -27 42 -24 42 30 0 405 -204 420 -229 3 -4 -8 -33 -24 -63 -106 -196 -113
-690 -11 -782 25 -23 45 -12 110 60 59 67 114 174 135 264 28 118 14 285 -30
373 -16 31 -16 32 2 16 96 -80 191 -170 260 -249 l84 -94 -44 -46 c-87 -91
-165 -234 -227 -421 -60 -180 -64 -329 -9 -329 60 0 209 105 277 195 84 111
113 191 122 330 l6 100 41 -70 c67 -112 174 -341 174 -370 0 -2 -24 -14 -52
-28 -78 -36 -165 -106 -268 -214 -144 -152 -230 -294 -230 -379 0 -34 0 -34
48 -34 68 0 192 34 263 71 74 40 176 133 219 199 17 27 42 80 55 117 13 37 26
61 29 53 19 -54 56 -351 56 -452 0 -25 -4 -28 -33 -28 -130 0 -426 -132 -559
-250 -83 -73 -168 -224 -140 -252 18 -18 128 -28 206 -18 187 24 373 131 478
274 l28 39 0 -29 c0 -35 -31 -220 -61 -362 -21 -100 -23 -103 -45 -98 -135 34
-316 -1 -519 -99 -104 -51 -193 -115 -235 -171 -50 -66 -42 -79 60 -115 84
-29 243 -31 340 -6 94 26 199 80 264 139 55 48 57 49 50 22 -18 -74 -149 -413
-167 -430 -3 -3 -33 5 -68 18 -58 21 -81 23 -249 23 -207 -1 -305 -18 -424
-74 -69 -34 -132 -92 -123 -115 3 -8 30 -31 60 -51 173 -115 434 -126 632 -26
40 20 71 32 67 26 -36 -62 -146 -225 -195 -288 -34 -45 -67 -88 -73 -96 -10
-12 -16 -11 -42 8 -186 132 -580 168 -775 70 -48 -24 -97 -67 -97 -85 0 -21
92 -95 164 -131 173 -87 396 -102 581 -38 11 4 -60 -72 -157 -170 l-177 -178
-43 38 c-53 46 -201 118 -288 140 -90 23 -268 30 -358 15 -77 -13 -195 -65
-226 -99 -18 -19 -17 -22 33 -74 145 -153 459 -225 701 -161 29 8 24 3 -213
-198 l-150 -126 -31 32 c-180 191 -618 246 -839 106 -26 -16 -50 -37 -53 -45
-4 -8 5 -30 19 -49 55 -72 209 -150 357 -181 81 -17 263 -19 329 -4 24 5 45 8
47 6 3 -3 -257 -224 -353 -300 -23 -19 -24 -18 -74 27 -63 56 -168 109 -274
137 -119 32 -312 32 -415 1 -85 -27 -144 -58 -179 -96 l-25 -26 40 -41 c77
-79 190 -135 333 -165 88 -18 274 -21 345 -5 27 7 50 10 52 8 2 -2 -81 -76
-184 -164 l-187 -161 -48 45 c-53 50 -160 104 -257 130 -83 23 -330 25 -405 4
-111 -32 -225 -100 -225 -136 0 -25 94 -98 173 -135 118 -55 216 -74 367 -73
79 0 145 6 180 16 30 8 56 14 57 13 2 -1 -27 -29 -65 -62 -37 -32 -120 -107
-184 -166 -64 -60 -119 -108 -123 -108 -4 0 -26 16 -48 36 -51 43 -160 96
-247 120 -49 14 -102 18 -210 18 -130 0 -153 -3 -225 -27 -86 -28 -155 -68
-195 -112 l-25 -27 46 -42 c90 -82 244 -138 415 -151 93 -7 228 6 296 30 21 7
38 12 38 10 0 -1 -85 -84 -190 -184 -188 -180 -189 -181 -234 -181 -89 0 -245
-78 -358 -179 -133 -119 -247 -344 -236 -470 3 -34 5 -36 44 -39 95 -7 274 77
392 183 139 126 249 318 253 439 1 27 27 56 182 203 99 95 182 171 183 170 2
-1 -7 -34 -18 -72 -17 -56 -21 -99 -22 -215 -1 -162 18 -253 75 -360 29 -54
93 -130 109 -130 16 0 78 79 103 133 104 219 81 573 -50 743 -18 24 -33 48
-33 53 0 5 11 18 24 28 13 10 94 82 181 161 87 79 159 141 161 139 2 -2 -5
-25 -15 -53 -45 -118 -52 -334 -16 -469 31 -117 112 -255 150 -255 19 0 81 73
110 129 51 101 69 193 69 346 0 115 -4 154 -22 218 -24 85 -71 186 -96 206 -9
8 -16 17 -16 21 0 7 223 202 364 319 18 16 18 15 1 -24 -33 -80 -55 -198 -55
-301 0 -118 10 -183 45 -279 24 -67 87 -164 112 -172 19 -7 90 72 123 136 56
111 74 200 75 356 0 104 -5 157 -18 205 -18 66 -63 167 -92 206 -15 21 -11 26
162 169 98 82 185 154 194 161 11 10 8 -8 -13 -69 -70 -209 -61 -430 24 -603
16 -34 42 -74 58 -89 l28 -27 44 43 c85 86 139 216 159 383 20 167 -16 352
-89 460 l-34 51 48 40 c27 22 114 96 193 164 79 68 141 115 137 105 -99 -256
-82 -569 40 -736 19 -27 39 -48 46 -48 24 0 108 101 141 172 47 97 66 173 74
290 10 166 -28 326 -103 430 -19 28 -34 51 -32 52 2 1 84 80 182 176 98 96
176 167 173 158 -43 -121 -51 -372 -17 -514 25 -106 69 -200 116 -245 l34 -33
41 40 c54 52 124 197 144 296 19 97 19 232 0 323 -20 94 -74 204 -129 263
l-45 48 90 119 c50 66 113 158 142 204 l52 85 6 -145 c12 -261 88 -489 199
-593 l51 -48 25 23 c33 31 89 148 109 224 21 82 21 254 0 341 -28 115 -88 227
-158 298 -34 34 -77 68 -95 75 -18 8 -31 19 -28 25 63 144 111 264 142 356
l38 115 16 -70 c54 -235 183 -474 309 -573 27 -21 63 -44 81 -52 37 -15 38
-15 72 70 19 47 22 74 22 185 0 116 -3 139 -28 210 -39 115 -88 197 -167 280
-66 70 -182 145 -222 145 -26 0 -28 16 -12 87 24 103 65 343 65 380 0 48 13
40 33 -19 64 -184 251 -411 405 -491 89 -46 128 -53 142 -26 23 42 23 150 1
242 -68 285 -266 500 -495 540 l-63 11 -7 120 c-7 115 -38 333 -53 372 -4 10
40 -30 97 -90 206 -214 427 -345 579 -346 l44 0 -5 83 c-9 143 -75 274 -203
402 -92 93 -182 145 -301 175 -90 23 -150 25 -221 7 l-51 -13 -32 80 c-42 103
-99 218 -150 301 -22 36 -40 67 -40 69 0 2 46 -20 103 -49 190 -99 387 -155
546 -155 92 0 171 20 171 44 0 21 -51 119 -87 169 -81 110 -251 218 -398 253
-145 33 -343 6 -430 -60 l-32 -25 -98 110 c-54 60 -101 109 -104 109 -3 1 -41
34 -85 74 l-78 74 58 -15 c36 -9 132 -17 244 -20 159 -4 198 -2 281 15 102 21
195 60 229 97 27 29 19 47 -52 110 -65 57 -189 119 -282 140 -82 19 -232 21
-313 5 -100 -20 -217 -82 -282 -148 l-57 -58 -79 50 c-44 27 -145 83 -225 123
l-145 73 53 0 c30 0 100 9 155 20 214 44 400 127 497 222 65 63 71 85 34 115
-100 80 -340 111 -508 64 -178 -49 -341 -169 -396 -291 -13 -30 -25 -56 -26
-58 -1 -2 -51 10 -111 28 -85 24 -346 79 -381 80 -4 0 30 16 76 35 110 45 200
95 295 163 142 102 263 253 255 320 -3 23 -10 29 -48 39 -124 32 -310 6 -447
-63 -170 -85 -314 -256 -338 -401 -14 -78 -4 -73 -133 -73 -109 0 -264 -11
-357 -26 l-40 -6 55 38 c68 47 233 210 287 284 88 121 143 246 143 325 0 36
-4 44 -22 49 -33 8 -64 6 -138 -9z"/>
<path d="M4020 10981 c-275 -89 -481 -354 -482 -621 0 -47 4 -96 9 -110 10
-24 7 -25 -126 -76 -75 -28 -182 -74 -239 -103 l-103 -52 39 58 c155 228 243
540 198 697 -17 58 -17 58 -49 52 -67 -13 -143 -62 -228 -146 -72 -71 -93
-101 -132 -180 -59 -120 -77 -192 -78 -305 0 -107 13 -174 47 -234 13 -25 21
-47 17 -51 -5 -4 -60 -45 -123 -92 -63 -47 -150 -118 -192 -158 l-77 -71 20
58 c52 148 80 405 60 544 -12 90 -44 179 -75 216 l-23 26 -45 -31 c-69 -47
-124 -116 -173 -217 -56 -113 -77 -204 -78 -325 0 -153 48 -292 134 -385 l40
-43 -64 -83 c-61 -82 -123 -178 -184 -287 l-30 -53 -6 118 c-12 205 -67 420
-138 539 -33 55 -109 134 -128 134 -16 0 -58 -60 -91 -131 -91 -196 -76 -466
36 -650 41 -68 144 -167 200 -192 l41 -19 -33 -109 c-37 -120 -74 -290 -74
-337 0 -45 -15 -47 -28 -4 -19 63 -110 242 -167 327 -103 155 -227 268 -308
282 -34 5 -35 5 -53 -48 -25 -73 -25 -247 0 -339 66 -245 260 -441 467 -474
l66 -10 7 -125 c5 -109 17 -204 42 -350 l6 -35 -40 50 c-54 69 -193 197 -277
256 -130 92 -263 148 -352 148 -40 0 -43 -2 -44 -27 -4 -96 15 -172 68 -277
63 -125 208 -253 359 -316 94 -39 214 -58 277 -44 l45 11 41 -163 c23 -89 55
-201 71 -248 l29 -86 -65 57 c-203 183 -507 297 -668 252 -38 -10 -38 -11 -33
-51 3 -22 19 -68 36 -102 132 -265 482 -439 745 -371 33 9 60 14 61 13 2 -2
28 -55 58 -118 31 -63 82 -160 115 -215 33 -55 59 -101 58 -102 -1 -1 -37 16
-79 38 -168 88 -408 147 -557 136 -72 -5 -159 -32 -173 -54 -3 -5 6 -31 20
-58 73 -145 243 -270 434 -320 78 -21 234 -24 309 -6 30 7 83 28 116 46 l62
33 105 -126 c58 -70 134 -155 168 -189 34 -35 59 -63 55 -63 -3 0 -43 11 -89
24 -255 74 -604 40 -706 -68 -28 -30 -21 -46 51 -111 186 -167 512 -209 754
-96 34 16 80 45 103 66 l41 37 117 -110 c65 -60 148 -136 185 -168 37 -32 66
-59 64 -61 -2 -3 -24 1 -47 8 -70 21 -308 18 -404 -4 -141 -33 -325 -136 -325
-182 0 -20 65 -72 128 -103 97 -49 143 -57 312 -56 140 0 163 3 235 27 91 30
183 82 236 133 l36 35 192 -161 193 -161 -49 8 c-26 4 -109 8 -183 8 -158 -1
-246 -21 -371 -86 -77 -40 -169 -119 -169 -145 0 -20 95 -79 170 -106 56 -19
85 -22 215 -23 115 0 166 4 220 19 102 27 223 88 280 140 27 25 50 46 51 46 1
0 89 -72 194 -160 187 -156 191 -160 149 -153 -83 15 -319 8 -389 -11 -108
-29 -223 -90 -286 -152 l-57 -55 27 -28 c95 -99 366 -139 576 -86 92 24 237
96 289 144 38 36 47 39 62 29 35 -25 358 -303 358 -309 1 -3 -22 0 -51 7 -70
18 -251 18 -342 -1 -140 -29 -267 -95 -339 -174 -37 -41 -38 -43 -21 -62 33
-36 156 -89 244 -105 211 -38 493 29 628 151 l47 42 187 -165 c103 -92 186
-167 185 -168 -1 -2 -31 4 -67 13 -95 22 -311 13 -405 -17 -123 -39 -244 -111
-280 -166 -16 -25 -16 -27 6 -51 81 -85 274 -131 471 -111 155 15 322 81 404
160 l31 29 34 -28 c18 -15 103 -92 187 -171 85 -78 158 -142 162 -142 4 0 15
9 24 19 17 19 15 22 -61 93 -43 41 -129 121 -190 178 l-113 102 26 31 c38 45
73 120 96 205 29 108 28 296 -1 405 -28 106 -75 199 -129 254 l-44 45 -34 -33
c-129 -125 -172 -458 -90 -701 18 -54 19 -65 7 -55 -48 41 -361 320 -361 322
0 2 16 26 35 55 19 28 47 88 62 133 24 74 27 96 27 237 1 171 -10 233 -64 345
-31 66 -113 165 -135 165 -39 0 -107 -124 -136 -248 -18 -73 -20 -109 -17
-227 4 -122 9 -151 35 -227 16 -49 28 -88 26 -88 -6 0 -368 313 -371 321 -2 4
11 27 28 50 41 59 77 171 91 280 18 151 -14 331 -83 460 -34 64 -103 139 -128
139 -21 0 -59 -54 -95 -132 -72 -158 -73 -422 -2 -598 14 -34 22 -60 18 -58
-15 6 -380 313 -380 320 -1 4 12 27 28 51 17 24 42 79 57 123 23 66 28 101 31
214 6 155 -7 234 -57 354 -32 77 -117 186 -145 186 -35 0 -116 -154 -140 -268
-29 -141 -14 -337 36 -464 10 -27 19 -51 19 -54 0 -2 -82 64 -182 148 -100 84
-186 156 -191 159 -4 3 9 33 30 66 141 217 124 649 -32 820 l-43 48 -37 -35
c-48 -46 -109 -171 -130 -265 -26 -114 -17 -304 17 -405 15 -41 25 -76 24 -78
-4 -3 -283 248 -330 296 l-39 41 27 32 c40 47 82 137 112 236 38 128 45 343
16 460 -11 45 -32 100 -47 123 l-26 42 -27 -18 c-91 -57 -179 -193 -218 -334
-23 -85 -24 -273 -1 -345 9 -27 15 -50 14 -52 -4 -3 -188 203 -262 294 l-66
82 41 38 c155 139 298 534 260 717 -16 78 -29 86 -93 54 -145 -71 -271 -237
-312 -409 -8 -35 -15 -102 -15 -148 l0 -85 -31 49 c-43 67 -116 203 -166 307
l-41 87 56 32 c123 69 292 277 362 445 38 92 57 199 44 251 -9 37 -10 38 -52
36 -53 -2 -153 -51 -228 -112 -118 -94 -208 -237 -240 -381 l-17 -75 -24 70
c-13 39 -44 146 -68 239 l-43 169 64 22 c85 29 183 97 276 192 122 126 231
314 232 401 1 47 1 47 -35 50 -57 5 -176 -25 -254 -63 -132 -66 -234 -176
-291 -316 l-31 -79 -17 103 c-16 97 -35 296 -36 363 0 31 0 31 64 37 237 22
676 293 676 416 0 5 -26 17 -57 27 -87 29 -265 26 -354 -4 -118 -40 -216 -109
-280 -196 -27 -37 -29 -38 -29 -14 0 64 62 333 96 418 l15 37 42 -14 c101 -35
323 -26 524 22 116 28 204 68 248 115 l30 32 -30 24 c-45 38 -154 91 -222 108
-34 9 -102 16 -153 16 -134 0 -241 -32 -327 -97 -18 -13 -33 -22 -33 -20 0 24
159 278 229 367 19 25 37 47 38 49 1 2 20 -8 40 -22 131 -91 399 -154 612
-145 88 4 117 9 156 29 27 13 50 29 52 34 7 22 -95 131 -169 181 -111 76 -212
107 -348 107 -69 0 -122 -5 -154 -16 l-49 -16 34 35 c51 53 184 164 272 227
l79 56 60 -64 c165 -177 543 -337 696 -295 54 14 54 34 7 126 -97 189 -290
317 -499 333 l-90 6 130 62 c124 59 332 140 337 132 1 -2 20 -40 41 -83 45
-90 180 -240 295 -327 96 -72 219 -131 286 -137 l55 -4 0 48 c-1 216 -203 477
-418 540 -30 9 -52 17 -50 19 16 14 371 65 461 65 24 0 27 -4 27 -31 0 -168
214 -527 381 -638 110 -73 132 -53 133 119 0 82 -5 121 -23 180 -41 136 -119
247 -224 321 l-69 48 53 -5 c120 -12 279 -36 361 -55 87 -21 88 -21 80 -47 -4
-15 -6 -76 -6 -137 3 -228 108 -526 221 -625 19 -17 42 -30 51 -28 21 4 66 95
87 173 8 33 15 100 15 150 0 154 -41 276 -126 381 l-44 54 42 -16 c43 -16 304
-142 385 -186 23 -13 43 -29 43 -36 0 -7 13 -38 29 -70 95 -185 361 -473 569
-613 69 -46 78 -49 136 -49 35 0 77 5 94 11 l32 11 -4 76 c-2 56 -11 98 -33
153 -34 88 -111 209 -132 209 -7 0 -51 35 -95 78 -128 123 -237 191 -375 232
-48 15 -87 21 -117 17 -24 -2 -47 -1 -50 4 -3 5 -9 7 -14 4 -4 -3 -32 10 -60
29 -65 43 -232 126 -341 170 l-82 33 59 8 c32 4 109 20 169 35 251 65 448 181
510 300 14 28 14 29 -13 48 -42 31 -100 52 -180 68 -289 56 -598 -81 -718
-318 -13 -26 -24 -55 -24 -64 0 -13 -6 -15 -27 -9 -120 30 -256 54 -405 70
l-56 6 86 45 c251 132 470 349 497 496 7 36 6 37 -32 47 -54 15 -197 13 -270
-4 -268 -63 -487 -287 -512 -525 l-6 -55 -105 -8 c-96 -7 -317 -38 -379 -54
-20 -5 -11 6 35 44 206 172 385 474 372 630 l-3 38 -55 2 c-32 1 -79 -5 -110
-16z"/>
</g>
</svg>
