<?xml version="1.0" standalone="no"?>
<!DOCTYPE svg PUBLIC "-//W3C//DTD SVG 20010904//EN"
 "http://www.w3.org/TR/2001/REC-SVG-20010904/DTD/svg10.dtd">
<svg version="1.0" xmlns="http://www.w3.org/2000/svg"
 width="24px" height="24px" viewBox="0 0 1280.000000 921.000000"
 preserveAspectRatio="xMidYMid meet">
<metadata>
Created by potrace 1.15, written by Peter Selinger 2001-2017
</metadata>
<g transform="translate(0.000000,921.000000) scale(0.100000,-0.100000)"
fill="#009688" stroke="none">
<path d="M6285 9191 c-48 -22 -79 -54 -100 -103 -27 -67 -15 -151 30 -198 l25
-26 -57 4 c-184 12 -278 -203 -147 -335 24 -23 51 -43 60 -43 10 0 15 -3 12
-6 -4 -3 -73 -14 -155 -25 -385 -51 -703 -146 -1038 -309 -236 -115 -418 -230
-646 -409 l-76 -60 15 42 c32 88 -16 199 -101 238 -84 38 -172 17 -235 -56
l-32 -36 0 33 c0 43 -36 104 -83 142 -36 28 -45 31 -112 31 -82 0 -105 -11
-158 -78 -52 -64 -47 -169 11 -239 30 -36 94 -67 137 -68 l30 0 -32 -21 c-19
-12 -43 -43 -59 -75 -22 -46 -26 -63 -21 -107 16 -129 148 -210 263 -162 l35
14 -46 -57 c-317 -395 -530 -814 -651 -1282 -42 -159 -80 -378 -90 -509 l-7
-94 -24 47 c-47 92 -149 135 -239 101 -91 -35 -144 -124 -129 -217 l7 -43 -28
27 c-118 111 -324 17 -324 -147 0 -152 179 -248 307 -163 l38 25 -3 -51 c-2
-42 3 -60 28 -103 80 -139 275 -130 346 15 l18 37 7 -80 c26 -300 126 -690
249 -977 l41 -95 -30 -104 c-43 -147 -61 -265 -61 -388 0 -166 22 -243 165
-579 l57 -133 -16 -40 c-18 -44 -21 -115 -7 -152 7 -19 1 -42 -33 -113 -63
-133 -130 -229 -225 -325 -141 -141 -278 -207 -446 -216 -106 -6 -178 7 -263
47 -171 81 -249 263 -182 429 37 96 51 108 133 121 221 37 383 131 480 278
181 273 140 678 -97 978 -154 195 -374 306 -573 290 -95 -8 -218 -53 -311
-117 -92 -62 -150 -73 -347 -67 -104 4 -139 9 -177 26 -72 32 -136 97 -174
175 -55 116 -62 196 -38 473 5 58 3 79 -14 117 -30 68 -69 112 -142 162 -79
54 -161 84 -255 92 -89 7 -154 -7 -269 -58 -131 -58 -168 -65 -220 -39 -25 12
-55 39 -76 69 -19 28 -38 50 -41 51 -4 0 -19 -28 -34 -62 -39 -87 -45 -177
-15 -246 35 -81 118 -148 225 -182 56 -18 65 -27 65 -70 0 -74 -66 -117 -164
-107 -28 3 -59 8 -68 12 -16 7 -18 -1 -18 -84 0 -327 188 -571 530 -688 128
-43 249 -63 390 -63 147 0 271 21 379 65 l84 34 62 -23 c208 -79 349 -193 419
-341 49 -102 61 -163 60 -300 -1 -122 -21 -238 -61 -353 l-18 -54 -86 -32
c-145 -54 -233 -111 -340 -216 -78 -78 -102 -110 -137 -180 -120 -245 -92
-498 82 -759 90 -134 202 -248 296 -298 360 -194 867 -216 1216 -53 116 54
198 111 289 205 165 168 254 382 285 684 9 98 12 107 45 145 103 120 151 182
196 257 52 87 99 217 99 275 0 34 0 34 45 34 52 0 109 21 144 53 55 51 77 157
45 219 -19 37 -14 34 86 -47 104 -85 257 -192 373 -260 l97 -58 -38 -41 c-174
-190 -302 -439 -359 -698 -13 -63 -18 -124 -17 -253 0 -150 4 -181 26 -266 38
-139 81 -235 158 -351 135 -206 301 -321 555 -387 110 -29 293 -52 433 -54
189 -2 273 32 507 208 158 119 237 162 330 177 132 22 238 -21 431 -173 248
-195 342 -228 610 -209 533 38 800 197 985 584 214 450 99 1018 -290 1439 -51
55 -54 61 -37 71 80 48 277 184 349 241 134 105 130 103 117 71 -25 -66 -1
-165 51 -213 72 -66 192 -71 257 -11 l22 21 0 -39 c1 -159 101 -362 280 -563
l58 -66 11 -110 c23 -216 81 -400 172 -541 193 -297 522 -457 944 -456 236 0
431 43 625 139 103 51 125 67 210 153 210 210 312 436 297 661 -20 304 -245
560 -598 678 l-67 22 -20 82 c-33 131 -45 242 -39 346 15 268 151 455 421 582
118 55 123 55 215 20 125 -48 240 -64 416 -58 531 19 875 317 875 759 0 72 -2
79 -17 73 -10 -4 -45 -9 -78 -12 -76 -5 -122 16 -148 69 -27 55 -10 84 68 112
159 57 246 170 232 301 -5 49 -37 145 -58 175 -9 13 -12 12 -22 -4 -28 -44
-84 -100 -114 -113 -42 -17 -89 -7 -209 46 -116 52 -180 65 -270 58 -179 -16
-334 -115 -396 -253 -19 -44 -20 -57 -12 -149 27 -299 -9 -453 -129 -561 -78
-70 -151 -88 -335 -82 l-147 4 -65 48 c-112 84 -254 136 -370 136 -128 0 -294
-66 -413 -165 -374 -310 -471 -882 -199 -1177 103 -111 205 -163 392 -202
l105 -21 35 -70 c32 -64 35 -77 35 -160 0 -107 -21 -159 -91 -229 -89 -90
-216 -132 -369 -123 -168 9 -305 75 -446 216 -122 121 -219 280 -284 462 l-27
76 27 77 c15 42 60 156 101 252 94 221 114 292 121 424 9 170 -25 359 -100
560 l-36 95 44 115 c88 233 161 535 186 765 15 142 16 146 38 109 78 -127 258
-134 338 -12 23 35 28 52 28 107 0 64 1 65 18 48 48 -48 150 -61 216 -27 109
55 142 191 70 290 -60 83 -181 104 -267 47 l-39 -26 5 45 c10 93 -71 194 -170
210 -71 12 -157 -31 -199 -100 -22 -37 -24 -33 -38 109 -37 352 -159 753 -335
1100 -114 224 -244 423 -422 645 -16 19 -21 29 -12 22 24 -19 110 -26 152 -12
154 51 183 263 48 352 l-27 18 30 0 c44 0 114 39 149 83 28 35 31 45 31 112 0
67 -3 76 -31 111 -55 68 -77 79 -159 79 -67 0 -77 -3 -112 -31 -44 -35 -83
-105 -83 -148 l0 -31 -31 38 c-61 74 -151 96 -234 58 -94 -42 -139 -154 -100
-248 l15 -36 -32 27 c-226 184 -430 316 -673 436 -340 167 -661 265 -1030 315
-66 9 -135 18 -154 21 l-35 6 32 15 c18 9 45 31 62 49 113 130 7 336 -166 322
l-55 -5 25 26 c32 34 46 72 46 124 -1 142 -147 237 -275 178z m130 -381 c-8
-9 -23 -35 -33 -58 -18 -40 -20 -42 -25 -20 -4 14 -17 40 -30 59 l-23 34 62 0
c55 0 61 -2 49 -15z m4 -269 c20 -20 44 -40 54 -46 13 -7 -18 -10 -108 -10
-90 0 -121 3 -108 10 37 20 91 85 99 117 l7 33 11 -34 c5 -19 26 -50 45 -70z
m-2591 -776 c1 -19 9 -49 17 -65 l16 -31 -30 15 c-16 9 -46 16 -65 16 l-35 0
47 49 c26 27 47 49 48 50 0 1 1 -15 2 -34z m5127 -65 c-22 -3 -50 -12 -63 -19
-23 -12 -23 -12 -8 18 9 16 16 46 16 65 l0 35 48 -47 47 -47 -40 -5z m-4913
-108 c32 2 58 4 58 3 0 0 -37 -38 -83 -83 l-83 -83 4 64 c3 46 0 73 -12 95
l-16 31 37 -16 c25 -10 57 -14 95 -11z m4762 -4 c-12 -22 -15 -49 -12 -95 2
-34 4 -63 3 -63 0 0 -38 37 -83 83 l-83 83 58 -4 c38 -3 70 1 93 11 19 9 36
16 38 16 1 1 -5 -13 -14 -31z m-5754 -2425 c-1 -132 -1 -137 -17 -108 -24 46
-54 76 -97 95 -37 17 -37 18 -15 25 39 12 89 55 106 91 9 19 18 34 20 34 2 0
3 -62 3 -137z m6687 54 c11 -9 37 -26 59 -37 21 -10 32 -19 23 -20 -24 0 -97
-56 -117 -89 -17 -28 -17 -26 -17 94 0 116 1 121 16 96 9 -14 25 -34 36 -44z
m-7017 4 c0 -5 21 -20 48 -33 l47 -23 -52 -26 -51 -27 -4 59 c-1 32 0 59 5 59
4 0 7 -4 7 -9z m7303 -120 c-1 -1 -12 6 -24 18 -13 12 -37 26 -55 33 l-32 11
49 24 c27 14 50 30 51 36 1 7 4 -17 7 -53 3 -36 5 -67 4 -69z m-1009 -2038
l15 -43 -44 0 c-24 0 -55 -4 -70 -10 -21 -8 -24 -7 -18 3 20 34 78 94 89 94 7
0 20 -20 28 -44z m-5173 -54 c9 -19 9 -19 -13 -7 -13 7 -25 14 -27 15 -1 1 0
7 4 12 8 14 22 6 36 -20z m177 -191 l82 -83 -59 3 c-36 2 -71 -2 -94 -12 l-37
-15 16 31 c12 22 15 49 12 95 -2 34 -4 63 -3 63 0 0 37 -37 83 -82z m4774 24
c-2 -37 2 -72 11 -95 l15 -35 -35 15 c-23 9 -58 13 -94 11 l-59 -3 82 83 c46
45 83 82 83 82 0 0 -1 -26 -3 -58z m111 -218 c-6 -17 -6 -17 -22 14 -12 22
-11 23 8 13 12 -7 18 -17 14 -27z m-1383 -644 c85 -168 76 -386 -21 -503 -58
-71 -144 -97 -317 -97 -60 0 -136 7 -172 15 -64 15 -223 88 -268 123 -22 17
-22 18 -5 52 22 44 22 134 0 176 -15 30 -62 75 -103 101 -17 10 -14 12 23 12
61 1 249 29 390 57 116 23 419 107 431 119 9 9 11 7 42 -55z m-1995 -25 c184
-47 368 -81 510 -93 l90 -8 -35 -16 c-47 -20 -97 -78 -110 -129 -15 -57 -4
-111 35 -169 l33 -49 -72 -35 c-120 -58 -161 -69 -294 -74 -239 -9 -334 32
-398 172 -32 70 -43 200 -25 286 18 84 61 172 80 165 9 -4 93 -26 186 -50z
m939 -124 c-39 -24 -80 -77 -90 -116 l-7 -30 -11 30 c-19 52 -36 75 -78 105
l-41 30 129 0 129 0 -31 -19z"/>
</g>
</svg>
